<svg version="1.1" xmlns="http://www.w3.org/2000/svg" style="display: block;" viewBox="0 0 2048 2048" width="1024" height="1024" preserveAspectRatio="none">
<path transform="translate(0,0)" fill="rgb(255,255,255)" d="M 0 0 L 2048 0 L 2048 2048 L 0 2048 L 0 0 z"/>
<path transform="translate(0,0)" fill="rgb(1,164,146)" d="M 551.163 804.676 C 548.77 796.545 542.872 784.781 539.95 776.472 C 534.92 762.165 530.337 747.879 526.41 733.23 C 497.934 629.08 502.785 518.627 540.284 417.375 C 587.229 289.456 683.221 185.522 807.013 128.578 C 926.837 73.7212 1063.58 68.8468 1187 115.033 C 1312.27 161.939 1413.89 256.491 1469.69 378.053 C 1517.4 483.774 1529.31 602.177 1503.6 715.281 C 1496.35 746.797 1487.14 772.616 1475.79 802.813 L 1475.35 802.964 C 1472.28 812.618 1469.15 819.242 1464.08 828.01 L 1464.14 829.101 C 1448.82 855.29 1441.91 871.62 1423.9 898.272 C 1356.06 998.674 1254.34 1074.25 1136.57 1105.27 C 1130 1107.02 1123.39 1108.64 1116.76 1110.13 L 1116.96 1111.15 C 1119.1 1121.6 1123.48 1134.78 1126.36 1145.37 C 1131.01 1163.12 1134.84 1181.08 1137.84 1199.19 C 1156.82 1317.94 1131.39 1429.91 1075.55 1535.19 L 1074.99 1535.64 C 1063.21 1557.87 1037.06 1596.47 1020.25 1614.91 L 1019.98 1615.6 C 1007.77 1626.17 990.465 1647.72 975.699 1661.37 C 918.653 1714.08 850.621 1753.48 776.507 1776.73 C 655.814 1813.67 525.439 1801.76 413.446 1743.54 C 293.129 1680.01 204.832 1578.03 164.642 1447.39 C 126.244 1321.03 139.719 1184.57 202.091 1068.16 C 260.895 959.386 356.106 874.783 471.036 829.175 C 501.227 817.183 521.891 813.661 551.163 804.676 z"/>
<path transform="translate(0,0)" fill="rgb(139,82,139)" d="M 551.163 804.676 L 551.629 804.804 C 554.84 813.825 558.926 821.478 562.312 830.092 L 562.674 830.177 C 578.413 860.808 589.328 881.35 609.645 909.784 C 672.932 997.591 762.262 1063.24 864.962 1097.42 C 884.333 1103.66 898.7 1106.29 917.878 1111.03 L 918.611 1111.07 C 929.561 1069.36 968.375 1003.41 995.621 969.639 C 1001.68 962.122 1009.47 951.246 1016.67 945.092 L 1017.2 945.784 C 1024.75 955.548 1034.8 965.028 1042.39 974.877 C 1071.5 1012.66 1103.88 1063.91 1116.11 1110.12 L 1116.76 1110.13 L 1116.96 1111.15 C 1119.1 1121.6 1123.48 1134.78 1126.36 1145.37 C 1131.01 1163.12 1134.84 1181.08 1137.84 1199.19 C 1156.82 1317.94 1131.39 1429.91 1075.55 1535.19 L 1074.99 1535.64 C 1063.21 1557.87 1037.06 1596.47 1020.25 1614.91 L 1019.98 1615.6 C 1007.77 1626.17 990.465 1647.72 975.699 1661.37 C 918.653 1714.08 850.621 1753.48 776.507 1776.73 C 655.814 1813.67 525.439 1801.76 413.446 1743.54 C 293.129 1680.01 204.832 1578.03 164.642 1447.39 C 126.244 1321.03 139.719 1184.57 202.091 1068.16 C 260.895 959.386 356.106 874.783 471.036 829.175 C 501.227 817.183 521.891 813.661 551.163 804.676 z"/>
<path transform="translate(0,0)" fill="rgb(104,36,102)" d="M 562.312 830.092 L 562.674 830.177 C 578.413 860.808 589.328 881.35 609.645 909.784 C 672.932 997.591 762.262 1063.24 864.962 1097.42 C 884.333 1103.66 898.7 1106.29 917.878 1111.03 L 918.611 1111.07 C 929.561 1069.36 968.375 1003.41 995.621 969.639 C 1001.68 962.122 1009.47 951.246 1016.67 945.092 L 1017.2 945.784 C 1024.75 955.548 1034.8 965.028 1042.39 974.877 C 1071.5 1012.66 1103.88 1063.91 1116.11 1110.12 L 1116.76 1110.13 L 1116.96 1111.15 C 1119.1 1121.6 1123.48 1134.78 1126.36 1145.37 C 1131.01 1163.12 1134.84 1181.08 1137.84 1199.19 C 1156.82 1317.94 1131.39 1429.91 1075.55 1535.19 L 1074.99 1535.64 C 1063.21 1557.87 1037.06 1596.47 1020.25 1614.91 C 999.408 1592.29 980.08 1563.25 964.732 1536.68 L 963.71 1535.92 C 651.832 1508.47 434.005 1195.56 534.018 895.674 C 542.018 871.687 551.221 852.632 562.312 830.092 z"/>
<path transform="translate(0,0)" fill="rgb(156,21,22)" d="M 918.611 1111.07 C 929.561 1069.36 968.375 1003.41 995.621 969.639 C 1001.68 962.122 1009.47 951.246 1016.67 945.092 L 1017.2 945.784 C 1024.75 955.548 1034.8 965.028 1042.39 974.877 C 1071.5 1012.66 1103.88 1063.91 1116.11 1110.12 L 1116.76 1110.13 L 1116.96 1111.15 C 1119.1 1121.6 1123.48 1134.78 1126.36 1145.37 C 1131.01 1163.12 1134.84 1181.08 1137.84 1199.19 C 1156.82 1317.94 1131.39 1429.91 1075.55 1535.19 L 1074.99 1535.64 C 1063.21 1557.87 1037.06 1596.47 1020.25 1614.91 C 999.408 1592.29 980.08 1563.25 964.732 1536.68 L 963.71 1535.92 C 962.946 1533.43 960.838 1530.1 959.508 1527.67 C 948.689 1507.86 937.463 1486.47 928.967 1465.54 C 891.759 1372.45 882.275 1270.58 901.659 1172.22 C 905.813 1151.25 911.918 1131.53 917.878 1111.03 L 918.611 1111.07 z"/>
<path transform="translate(0,0)" fill="rgb(54,25,23)" d="M 918.611 1111.07 C 929.561 1069.36 968.375 1003.41 995.621 969.639 C 1001.68 962.122 1009.47 951.246 1016.67 945.092 L 1017.2 945.784 C 1024.75 955.548 1034.8 965.028 1042.39 974.877 C 1071.5 1012.66 1103.88 1063.91 1116.11 1110.12 C 1062.42 1121.93 998.363 1123.45 943.968 1115.64 C 938.178 1114.8 923.477 1112.53 918.611 1111.07 z"/>
<path transform="translate(0,0)" fill="rgb(182,47,48)" d="M 964.732 1536.68 C 1006.99 1538.94 1032.01 1539.65 1074.99 1535.64 C 1063.21 1557.87 1037.06 1596.47 1020.25 1614.91 C 999.408 1592.29 980.08 1563.25 964.732 1536.68 z"/>
<path transform="translate(0,0)" fill="rgb(1,104,97)" d="M 580.279 799.337 C 624.242 733.782 664.207 687.745 730.7 642.803 C 841.504 567.911 980.147 538.413 1111.88 565.265 C 1224.81 588.51 1326.7 648.896 1401.31 736.795 C 1418.47 757.084 1431.58 776.615 1446.16 798.675 L 1447.42 799.633 C 1455.9 800.006 1467.54 800.191 1475.35 802.964 C 1472.28 812.618 1469.15 819.242 1464.08 828.01 L 1464.14 829.101 C 1448.82 855.29 1441.91 871.62 1423.9 898.272 C 1356.06 998.674 1254.34 1074.25 1136.57 1105.27 C 1130 1107.02 1123.39 1108.64 1116.76 1110.13 L 1116.11 1110.12 C 1103.88 1063.91 1071.5 1012.66 1042.39 974.877 C 1034.8 965.028 1024.75 955.548 1017.2 945.784 L 1016.67 945.092 C 1009.47 951.246 1001.68 962.122 995.621 969.639 C 968.375 1003.41 929.561 1069.36 918.611 1111.07 L 917.878 1111.03 C 898.7 1106.29 884.333 1103.66 864.962 1097.42 C 762.262 1063.24 672.932 997.591 609.645 909.784 C 589.328 881.35 578.413 860.808 562.674 830.177 L 562.312 830.092 C 558.926 821.478 554.84 813.825 551.629 804.804 C 559.242 802.795 571.124 800.661 578.77 799.92 L 580.279 799.337 z"/>
<path transform="translate(0,0)" fill="rgb(29,42,77)" d="M 580.279 799.337 C 598.444 796.924 617.135 794.698 635.502 793.914 C 773.439 788.03 910.091 840.239 1008.54 937.14 C 1011.06 939.622 1013.84 942.981 1016.94 944.365 L 1016.67 945.092 C 1009.47 951.246 1001.68 962.122 995.621 969.639 C 968.375 1003.41 929.561 1069.36 918.611 1111.07 L 917.878 1111.03 C 898.7 1106.29 884.333 1103.66 864.962 1097.42 C 762.262 1063.24 672.932 997.591 609.645 909.784 C 589.328 881.35 578.413 860.808 562.674 830.177 L 562.312 830.092 C 558.926 821.478 554.84 813.825 551.629 804.804 C 559.242 802.795 571.124 800.661 578.77 799.92 L 580.279 799.337 z"/>
<path transform="translate(0,0)" fill="rgb(37,61,97)" d="M 551.629 804.804 C 559.242 802.795 571.124 800.661 578.77 799.92 C 574.738 810.24 567.072 819.685 562.674 830.177 L 562.312 830.092 C 558.926 821.478 554.84 813.825 551.629 804.804 z"/>
<path transform="translate(0,0)" fill="rgb(96,69,2)" d="M 1016.94 944.365 C 1107.24 843.543 1250.02 789.726 1383.67 793.027 C 1400.07 793.432 1430.86 794.319 1446.16 798.675 L 1447.42 799.633 C 1455.9 800.006 1467.54 800.191 1475.35 802.964 C 1472.28 812.618 1469.15 819.242 1464.08 828.01 L 1464.14 829.101 C 1448.82 855.29 1441.91 871.62 1423.9 898.272 C 1356.06 998.674 1254.34 1074.25 1136.57 1105.27 C 1130 1107.02 1123.39 1108.64 1116.76 1110.13 L 1116.11 1110.12 C 1103.88 1063.91 1071.5 1012.66 1042.39 974.877 C 1034.8 965.028 1024.75 955.548 1017.2 945.784 L 1016.67 945.092 L 1016.94 944.365 z"/>
<path transform="translate(0,0)" fill="rgb(127,93,14)" d="M 1447.42 799.633 C 1455.9 800.006 1467.54 800.191 1475.35 802.964 C 1472.28 812.618 1469.15 819.242 1464.08 828.01 C 1459.82 822.543 1451.17 806.419 1447.42 799.633 z"/>
<path transform="translate(0,0)" fill="rgb(250,157,41)" d="M 1475.79 802.813 C 1493.26 806.96 1510.93 810.577 1528.14 815.678 C 1646.13 850.637 1756.13 931.071 1821.05 1036.26 C 1892.93 1150.58 1915.66 1289.05 1884.12 1420.35 C 1853.6 1548.31 1769.53 1658.47 1657.83 1726.91 C 1548.8 1793.07 1418.22 1813.98 1293.99 1785.16 C 1208.31 1764.19 1129.37 1721.79 1064.56 1661.94 C 1048.42 1647.19 1034.25 1628.37 1019.98 1615.6 L 1020.25 1614.91 C 1037.06 1596.47 1063.21 1557.87 1074.99 1535.64 L 1075.55 1535.19 C 1131.39 1429.91 1156.82 1317.94 1137.84 1199.19 C 1134.84 1181.08 1131.01 1163.12 1126.36 1145.37 C 1123.48 1134.78 1119.1 1121.6 1116.96 1111.15 L 1116.76 1110.13 C 1123.39 1108.64 1130 1107.02 1136.57 1105.27 C 1254.34 1074.25 1356.06 998.674 1423.9 898.272 C 1441.91 871.62 1448.82 855.29 1464.14 829.101 L 1464.08 828.01 C 1469.15 819.242 1472.28 812.618 1475.35 802.964 L 1475.79 802.813 z"/>
<path transform="translate(0,0)" fill="rgb(235,78,17)" d="M 1464.14 829.101 C 1475.32 848.049 1486.47 876.289 1493.24 897.282 C 1521.6 984.74 1524.54 1078.46 1501.7 1167.52 C 1468.23 1294.43 1385.41 1402.68 1271.66 1468.17 C 1211.73 1504.05 1144.91 1526.89 1075.55 1535.19 C 1131.39 1429.91 1156.82 1317.94 1137.84 1199.19 C 1134.84 1181.08 1131.01 1163.12 1126.36 1145.37 C 1123.48 1134.78 1119.1 1121.6 1116.96 1111.15 L 1116.76 1110.13 C 1123.39 1108.64 1130 1107.02 1136.57 1105.27 C 1254.34 1074.25 1356.06 998.674 1423.9 898.272 C 1441.91 871.62 1448.82 855.29 1464.14 829.101 z"/>
</svg>